<svg id="Calque_1" data-name="Calque 1" xmlns="http://www.w3.org/2000/svg" xmlns:xlink="http://www.w3.org/1999/xlink" viewBox="0 0 1920 1080"><defs><style>.cls-1,.cls-21,.cls-23{fill:#0e37a2;}.cls-1{clip-rule:evenodd;}.cls-2{fill:#f8f7ff;}.cls-3{fill:#42abae;}.cls-4{fill:#276dd1;}.cls-5{fill:#3e3e72;}.cls-6{fill:#2a2051;}.cls-7{fill:#004b89;}.cls-8{fill:#54bfb3;}.cls-9{fill:#fff;}.cls-10{fill:#ece9f1;}.cls-11{fill:#266f77;}.cls-12{fill:#f2b78b;}.cls-13{fill:#d18c74;}.cls-14{fill:#f2a068;}.cls-15{fill:#ceddf0;}.cls-16{fill:#fd7a6e;}.cls-17{fill:#a54d3c;}.cls-18{fill:#f9c88f;}.cls-19{fill:#0b98cd;}.cls-20{fill:#222430;}.cls-21{fill-rule:evenodd;}.cls-22{clip-path:url(#clip-path);}.cls-24{fill:url(#linear-gradient);}.cls-25{fill:url(#linear-gradient-2);}.cls-26{fill:url(#linear-gradient-3);}.cls-27{fill:url(#linear-gradient-4);}.cls-28{fill:url(#linear-gradient-5);}</style><clipPath id="clip-path"><path class="cls-1" d="M827.2,640.79l2.35-5.76c.19-.46.09-.68-.36-.87l-1.35-.54-.26.64.08,0c.31.13.34.22.19.59l-2.15,5.3Zm.67.27,1.49.61,1.83-4.49c.18-.45.08-.68-.36-.86l-.89-.36ZM825,639.91l2.07-5.1-.88-.36c-.44-.18-.68-.09-.86.36l-1.83,4.49Zm6.93-.6a4.67,4.67,0,1,1-2.54-6.14A4.55,4.55,0,0,1,832,639.31Zm-24-9.06-.4,1a1.46,1.46,0,0,1-1,.09c-.28-.12-.33-.3-.17-.68s.3-.52.63-.52A5.45,5.45,0,0,1,807.94,630.25Zm12.85,2.14-.43,1.05L817,635.56l2.22.9-.43,1.07-4-1.62.42-1,3.37-2.14-1.15-.47c-.25-.1-.42,0-.51.2l0,.09-.59-.24.38-.93a.52.52,0,0,1,.77-.33Zm-5.86-2.45a1.34,1.34,0,0,1,.82.75c.14.37.09.65-.23,1.46l-1.41,3.47-1.59-.65,1.31-3.23c.21-.51.19-.68-.15-.82a1.23,1.23,0,0,0-1,.09l-1.4,3.44-1.59-.64,1.68-4.13a.35.35,0,0,0-.22-.54l-.09,0,.23-.58,1.51.61a.46.46,0,0,1,.3.68l-.09.2A2.39,2.39,0,0,1,814.93,629.94Zm14.84,2.39a5.64,5.64,0,1,1-7.34,3.11A5.5,5.5,0,0,1,829.77,632.33ZM805.37,624c.58.23.8.64.62,1.1s-.64.6-1.22.36-.8-.64-.61-1.11S804.8,623.77,805.37,624Zm3.47,3.44c1.3.52,1.56,1.16,1,2.45l-1,2.43c-.14.33-.08.49.19.6l.07,0-.22.55-1.46-.59a.46.46,0,0,1-.28-.67l0-.07a3.24,3.24,0,0,1-.86.16,2.57,2.57,0,0,1-.92-.19c-.87-.35-1.1-1-.7-2a1.57,1.57,0,0,1,1.56-1.13,3.12,3.12,0,0,1,.68.05c.4.07.62.11,1.32.27l0-.11c.18-.45.09-.67-.34-.84a4,4,0,0,0-1.73-.24l.05-1.12a4.15,4.15,0,0,1,1.24,0A5.64,5.64,0,0,1,808.84,627.45Zm-14-5.77-.35,2.77-1.43-.59ZM805,626a.52.52,0,0,1,.3.73l-1.87,4.58-1.58-.64,1.68-4.14a.36.36,0,0,0-.22-.54l-.09,0,.23-.58ZM803,623.15a.51.51,0,0,1,.29.73l-2.55,6.28-1.6-.65,2.37-5.83a.36.36,0,0,0-.22-.54l-.1,0,.24-.59ZM800.23,622a.52.52,0,0,1,.3.73L798,629.06l-1.6-.65,2.38-5.84a.35.35,0,0,0-.23-.53l-.1,0,.24-.59Zm-9,4.28,1.16-1.45,1.94.79-.21,1.83,1.79.73.76-7a.71.71,0,0,0-.49-.83l-2.53-1-.24.59.21.09c.26.1.36.27.28.47a1.7,1.7,0,0,1-.36.49l-4,4.64Z"/></clipPath><linearGradient id="linear-gradient" x1="1277.97" y1="842.3" x2="1403.12" y2="842.3" gradientUnits="userSpaceOnUse"><stop offset="0" stop-color="#fff"/><stop offset="1" stop-color="#42abae"/></linearGradient><linearGradient id="linear-gradient-2" x1="1319.14" y1="888.87" x2="1382.38" y2="888.87" xlink:href="#linear-gradient"/><linearGradient id="linear-gradient-3" x1="1424.04" y1="854.14" x2="1491.76" y2="854.14" gradientUnits="userSpaceOnUse"><stop offset="0" stop-color="#266f77"/><stop offset="1" stop-color="#fff"/></linearGradient><linearGradient id="linear-gradient-4" x1="1309.86" y1="718.54" x2="1395" y2="718.54" xlink:href="#linear-gradient"/><linearGradient id="linear-gradient-5" x1="1411.08" y1="748.75" x2="1544.76" y2="748.75" xlink:href="#linear-gradient-3"/></defs><path class="cls-2" d="M459.63,951c-66.06,0-164.43-58.66-164.43-170,0-54.7,39.55-121.14,150.78-159.95,84.36-29.44-41.3-69.86-41.3-216.73,0-78.58,80-153.82,286.69-153.82,166.09,0,130.14-102.68,323.54-134.45,102.91-16.9,291.26,46.72,270.92,200.38C1269,443.62,1184.1,450.71,1231.39,537.91c15.12,27.9,72.35,71.91,151.88,51.42,104.34-26.88,163.15,24.67,197.33,79.07C1648,775.75,1587.93,951,1391.37,951Z"/><polygon class="cls-3" points="1080 795 1061 965 1262.29 962.03 1240 792 1125 802 1080 795"/><path class="cls-4" d="M523,814s-16.63,69.37-16.82,94.68A516,516,0,0,0,509,961l188,5L664.36,815.49Z"/><polygon class="cls-5" points="640.28 816.62 644.04 841.04 651.16 838.92 648.28 815.22 640.28 816.62"/><polygon class="cls-5" points="537 816.62 533.07 843.63 541.11 843.63 544.63 818.63 537 816.62"/><path class="cls-5" d="M646.24,957.85a1.19,1.19,0,0,1-1.19-1.15l-2.28-56a1.18,1.18,0,0,1,1.14-1.23,1.19,1.19,0,0,1,1.24,1.14l2.28,56a1.19,1.19,0,0,1-1.14,1.23Z"/><ellipse class="cls-6" cx="623.91" cy="373.84" rx="16.01" ry="38.05"/><path class="cls-7" d="M1264.36,974.54a1.2,1.2,0,0,1-1.18-1l-14.67-110a1.19,1.19,0,1,1,2.36-.31l14.67,110a1.18,1.18,0,0,1-1,1.33Z"/><polygon class="cls-8" points="795.09 741.31 859.37 629.68 784.56 600.17 708.09 721.11 795.09 741.31"/><polygon class="cls-9" points="781.11 742.99 845.38 631.36 770.58 601.85 694.11 722.79 781.11 742.99"/><path class="cls-4" d="M1075.22,678.59s-11.47,127.11-16.3,157.53,32.87,11.35,32.87,11.35S1109,701.36,1111.05,698,1075.22,678.59,1075.22,678.59Z"/><path class="cls-4" d="M935.2,708.15s29.45,52.71,31.89,51.37,104.42-59.27,104.42-59.27l29.84-21.66,44-144.75-19.12-30.58s-62.85,58.14-65.55,121.94Z"/><path class="cls-3" d="M1091.22,913.66l-23-22.85L1079.73,787l45.57,16.79s-14.61,50.18-14.17,51.89S1091.22,913.66,1091.22,913.66Z"/><path class="cls-9" d="M1138,480.9l-23.92,19.81,9.46,36.48S1076,625.72,1085,685.93c0,0-.43,25.25-3.78,36.71s-16.69,61.91,17,75.11,70.45-48.44,70.45-48.44l12-226.2Z"/><ellipse class="cls-10" cx="774.25" cy="708.33" rx="14.98" ry="11.94" transform="translate(-202.75 1091.3) rotate(-63.86)"/><path class="cls-11" d="M1080.21,780.65s-.64,13.34,72.9,8.68l15.58,23.7s-56.79,10.87-91.67-5.81C1077,807.22,1070,790.87,1080.21,780.65Z"/><path class="cls-4" d="M1162.76,526.91S1148,619.74,1126.2,678.59s44.3,161,44.3,161,74.55,35.41,83,52.34h0a23.07,23.07,0,0,0,10-21.21l-3.85-41.13,62-91.25s10.62-24.22-4.83-55.4l-40.71-148a57.59,57.59,0,0,0-33.9-38.25c-13.1-5.26-28.83-9.26-42.28-6.08C1170.55,497.5,1162.76,526.91,1162.76,526.91Z"/><path class="cls-6" d="M541.28,482.82s-62-66-28.93-86l55.12,9.58-14.2,78.95Z"/><path class="cls-12" d="M677.41,667.39s29.55,3.1,36.87,8.75l13.62-14.37a21.11,21.11,0,0,1,8.92-5.67,17.13,17.13,0,0,1,4.24-.81,4.35,4.35,0,0,1,4.1,6.33,102.64,102.64,0,0,1-10.42,16.12S743.63,694,725.38,703c0,0-7.42,3.36-7.45,3.81s-37.22-1.53-37.22-1.53Z"/><path class="cls-13" d="M693.24,693.48S790.68,716,846.16,736.91l37.27-16.42,9.47,0,24.3,4.32,30.26-12.95,19.63,38.92-25.52,8s4.77,10.21-6.37,15.14c0,0-15.56,20.12-25,20.94S857,786,847.8,771.53c0,0-158.49,11.57-197.46-17.36Z"/><path class="cls-12" d="M693.24,693.48S790.68,716,846.16,736.91l37.27-16.42,9.47,0S889,723,884,734c-1,12,15,13,19-1,1-2,36,24,36,24l2.57,1.79s4.77,10.21-6.37,15.14c0,0-15.56,20.12-25,20.94S857,786,847.8,771.53c0,0-158.49,11.57-197.46-17.36Z"/><polygon class="cls-12" points="605.36 480.06 605.16 484.64 603.67 518.6 602.84 537.38 536.76 524.87 545.88 436.78 605.36 480.06"/><path class="cls-14" d="M605.16,484.64l-1.49,34c-23.66-10.85-33.81-47-33.81-47l25.09,5S599.42,479.87,605.16,484.64Z"/><path class="cls-9" d="M696.67,694.28c-.06,1.23-.13,2.47-.21,3.73l-9.67,35.37L681,754.54l-3,10.86-13.69,50.09s-95.45,31-143-2.87L491.25,660.11a141.13,141.13,0,0,1-4.18-26.52c-1.89-26.92,2-68.63,36.56-97.38l-4.45-21.67-3.06-14.86s70.21,4,106,45.38h0s22.56,13.82,42.89,42C682.8,611.7,698.87,647.31,696.67,694.28Z"/><ellipse class="cls-12" cx="602.42" cy="453.38" rx="43.73" ry="48.11" transform="translate(-126.71 261.45) rotate(-22.22)"/><path class="cls-15" d="M543.41,616.75s-10,63.57,32.59,104.59,54.37-13,54.37-13l-36.48-74.14Z"/><path class="cls-10" d="M696.67,694.28c-.06,1.23-.13,2.47-.21,3.73l-9.67,35.37c-3.89-2.48-49.64-32.49-27.7-61.6,14.42-19.14,10.68-58.32,5.93-84.72C682.8,611.7,698.87,647.31,696.67,694.28Z"/><path class="cls-16" d="M681,754.54l-3,10.86-13.69,50.09s-95.45,31-143-2.87L491.25,660.11s-.24-.83-.6-2.36a92.29,92.29,0,0,1,.63-45.78c.9-3.3,1.53-9.64,2.64-12.47,11.75-29.81,36.33-58.23,71.78-56.24a57.75,57.75,0,0,1,18.42,4.1A59.12,59.12,0,0,1,616.44,580l-17,13.27c-2.84-8.14-6.41-16.14-11.84-22.84-18-22.21-48.35-14.81-65.19,4.69-6.52,7.55-10,18.75-11.58,28.45-3.45,20.71,1.71,41.83,10.6,60.54,27.9,58.7,87.13,50.54,87.13,50.54Z"/><path class="cls-12" d="M641.39,398.19c4.35,25-6.1,64.52-29.57,68.6S560.74,438,556.39,413s11.17-48.59,34.64-52.66S637.05,373.18,641.39,398.19Z"/><path class="cls-13" d="M1191.56,820.44l-21.06,11L1143.67,836a5.27,5.27,0,0,0-4,3.23h0a5.27,5.27,0,0,0,2.73,6.78l.8.36a49.83,49.83,0,0,0,8.74,3l18.56,4.49s9.28,21.36,32.36,27.71l24-23.62Z"/><path class="cls-13" d="M1200.1,474.41l-64.35,52.49-1.93-30.74-2-31.6,5-8.35c8.61-14.23,25.28-41.66,25.88-41.66.81,0,26.9-7.87,26.9-7.87l9.79,14.34Z"/><path class="cls-6" d="M1197.76,361.11s11.94-.33,14.77,25.71c2.12,19.58-.09,42.77-1.32,53.06a9.19,9.19,0,0,1-6.55,7.72c-5.18,1.52-12,1.89-12.17-6.44-.36-13.53,1.27-34.48,1.27-34.48L1186.35,380Z"/><path class="cls-9" d="M685.62,686.55,662,703.35l-41.45,29.42-21.23-22-40.23-41.65a86.76,86.76,0,0,1-14.65-20.35C532,625,513.23,575.21,563.15,562.36c66.35-17.06,97.53,73.43,98.63,77.26Z"/><path class="cls-17" d="M1133.82,496.16l-2-31.6,5-8.35,33.29-8.4S1172.54,484.33,1133.82,496.16Z"/><ellipse class="cls-13" cx="1136.24" cy="423.79" rx="44.45" ry="51.67"/><ellipse class="cls-13" cx="1137.99" cy="385.49" rx="44.45" ry="54.44"/><path class="cls-6" d="M1200.5,369.89s20.72-30.15-6.74-46.15c-26-15.19-64.84,9.39-95.13-6a4.65,4.65,0,0,0-6.61,2.8c-2.73,9.49-10.45,26.43,7.73,34.67,24.77,11.22,57.5,4.31,67.18,22.77s12.69,18.59,12.69,18.59l14.14,1.88Z"/><path class="cls-18" d="M900.66,389.75A31.81,31.81,0,1,1,932.47,358,31.84,31.84,0,0,1,900.66,389.75Zm0-61.9a30.1,30.1,0,1,0,30.1,30.1A30.13,30.13,0,0,0,900.66,327.85Z"/><path class="cls-19" d="M900.66,379.91a20.4,20.4,0,0,1-20.38-20.38v-70a20.39,20.39,0,0,1,40.77,0v70A20.4,20.4,0,0,1,900.66,379.91Zm0-109A18.7,18.7,0,0,0,882,289.56v70a18.67,18.67,0,0,0,37.34,0v-70A18.69,18.69,0,0,0,900.66,270.89Z"/><path class="cls-19" d="M920.19,289.56v25.15H881.14V289.56a19.53,19.53,0,1,1,39.05,0Z"/><circle class="cls-18" cx="900.66" cy="357.95" r="12.86" transform="translate(345.36 1152.28) rotate(-76.72)"/><path class="cls-19" d="M900.66,278.3a.9.9,0,0,1-.85-.94V154.94a.86.86,0,1,1,1.71,0V277.36A.9.9,0,0,1,900.66,278.3Z"/><rect class="cls-19" x="895.35" y="256.49" width="10.62" height="22.96"/><path class="cls-6" d="M1162.25,364.82l1,36a5.47,5.47,0,0,0,5.91,5.29c3.29-.25,6.84-1.15,7.17-3.86.63-5.15,13.54-12.41,13.54-12.41Z"/><path class="cls-13" d="M858.62,780.62,879,787l7-7s15.09-5.36,11.55,6.3S870,815.79,858.62,780.62Z"/><path class="cls-13" d="M873.51,791.44l23.16-7.83s17.24-3.08,13.71,8.57S890.78,819.57,873.51,791.44Z"/><path class="cls-12" d="M696.67,694.28c-.06,1.23-.13,2.47-.21,3.73L678.05,765.4c-11.64-2.8-21.3-6.47-27.7-11.23l42.89-60.7Z"/><path class="cls-6" d="M515.4,403.08c-.61-.85-16.16-13.27-2.18-36.9,5.51-9.3,15.15-13.43,25.35-15.41,5.12-1,10.2-1.5,15.34-2,6.22-.65,11.92-4.05,16.61-8,12.18-10.36,22.26-24.47,39.75-25.42,11-.59,21.89,5.2,28.36,14.11,6.86,9.45,10,23.48,6.38,34.79-3.3,10.35-12.64,18.62-22.77,22.07-13.49,4.6-28.62,1.47-41.58,8.05-12.52,6.36-20.4,20.93-17.89,34.89a53.21,53.21,0,0,0-7.1-.86l-6.7-.62-13.91-1.29Z"/><ellipse class="cls-12" cx="552.43" cy="434.32" rx="16.46" ry="19.86" transform="translate(-143.15 334.41) rotate(-30)"/><path class="cls-4" d="M1051,640.45s-8.75-10-5.54-14.12,18.86-9,19.49-6.86-1.36,21-1.36,21Z"/><path class="cls-9" d="M1134.13,533.84c0-.09,13.29-30.58,13.29-30.58s53.1-18.56,52.68-40.93c0,0,16.91,5.11,14.44,34.26,0,0-33.81,34.57-56.4,40.6Z"/><polygon class="cls-9" points="932.19 709.14 961.02 765.56 975.94 759.32 941.64 698.01 932.19 709.14"/><ellipse class="cls-13" cx="1186.35" cy="406.68" rx="16.81" ry="14.64" transform="translate(326.19 1319.33) rotate(-65.62)"/><path class="cls-20" d="M557.31,430.45a.89.89,0,0,1-.79-.47c-2.65-5-7.22-7.39-13.62-7.22-.5,0-1.43,0-1.46-.88a.91.91,0,0,1,1.11-.9h.3c8.87-.25,13.19,4.3,15.25,8.15a.9.9,0,0,1-.37,1.21A.94.94,0,0,1,557.31,430.45Zm-14.24-9.11a1,1,0,0,1,.16.48A.92.92,0,0,0,543.07,421.34Z"/><path class="cls-20" d="M1179.49,409.88a.86.86,0,0,1-.41-.1.9.9,0,0,1-.38-1.21c2.46-4.63,6.8-10,13.6-9.43a.89.89,0,1,1-.16,1.78c-5.82-.51-9.66,4.33-11.86,8.48A.88.88,0,0,1,1179.49,409.88Z"/><path class="cls-9" d="M1193.67,368a.89.89,0,0,1-.06-1.78c.09,0,9.07-.72,13.67-7a.89.89,0,0,1,1.44,1.06c-5.09,6.94-14.58,7.68-15,7.71Z"/><path class="cls-9" d="M1210.51,623a.92.92,0,0,1-.86-.65c-6.57-22.56.14-44.68,6.93-59.25A128.13,128.13,0,0,1,1233,536.61a.89.89,0,1,1,1.35,1.16,126.32,126.32,0,0,0-16.2,26.1c-6.65,14.28-13.22,35.94-6.81,58a.89.89,0,0,1-.61,1.11A1,1,0,0,1,1210.51,623Z"/><path class="cls-9" d="M1191.36,811l-.22,0a.9.9,0,0,1-.64-1.09l.64-2.56a10.22,10.22,0,0,1,6.87-7.23l1.67-.52,46-75.19a10,10,0,0,1-6.23.6,5.21,5.21,0,0,1-3.3-3,11,11,0,0,1-.58-8.75,13.49,13.49,0,0,1,6.19-6.53l-28-68.73a.89.89,0,0,1,.49-1.17.91.91,0,0,1,1.17.49l28.32,69.5a.89.89,0,0,1-.48,1.16s-4.47,2-6,5.94a9.26,9.26,0,0,0,.54,7.35,3.47,3.47,0,0,0,2.2,2c2.55.79,6.33-1,7.57-1.73a.89.89,0,0,1,1.09.14.88.88,0,0,1,.13,1.09l-47.69,78a.88.88,0,0,1-.5.39l-2,.62a8.42,8.42,0,0,0-5.66,6l-.64,2.56A.9.9,0,0,1,1191.36,811Z"/><path class="cls-9" d="M1218.38,648.94a.88.88,0,0,1-.44-.12l-7.7-4.37a.89.89,0,0,1-.34-1.21.9.9,0,0,1,1.22-.34l7.7,4.37a.89.89,0,0,1-.44,1.67Z"/><path class="cls-9" d="M1053,644.9a.88.88,0,0,1-.65-.28c-.41-.45-10.08-11-9.29-20.33a.89.89,0,1,1,1.78.15c-.73,8.55,8.72,18.86,8.82,19a.9.9,0,0,1-.66,1.5Z"/><path class="cls-15" d="M1136.24,529.67l11.18-26.41s15.57,7.26,6.94,26.41C1154.36,529.67,1150.29,516.17,1136.24,529.67Z"/><path class="cls-15" d="M1128.63,535c-8.25,27.61-18.61,54.68-24.41,83a196.76,196.76,0,0,0-4.35,42.66c.06,3.48.44,7,.44,10.44,0,4-.38,8.11-.75,12.12a121.73,121.73,0,0,1-4,22.72c-4.62,16.12-10.58,32.56-7,49.54.23,1.12,2,.64,1.72-.48-3.3-15.65,1.71-31.58,6.35-46.44,4.36-13.94,5.81-29,5.19-43.53-1.23-28.55,5.58-56.46,14-83.53,4.76-15.37,10-30.58,14.6-46,.33-1.1-1.4-1.57-1.73-.47Z"/><path class="cls-11" d="M1064.67,925.08h-.13a1.19,1.19,0,0,1-1-1.31l13.89-128.6a1.19,1.19,0,1,1,2.37.26L1065.86,924A1.2,1.2,0,0,1,1064.67,925.08Z"/><path class="cls-11" d="M1180.56,912.41a1.35,1.35,0,0,1-.28,0c-17.54-4.3-30-18.73-38.08-44.1a1.19,1.19,0,1,1,2.27-.72c7.82,24.51,19.72,38.42,36.38,42.51a1.18,1.18,0,0,1,.87,1.44A1.2,1.2,0,0,1,1180.56,912.41Z"/><path class="cls-11" d="M1207.8,886.33a.84.84,0,0,1-.27,0c-6.38-1.52-16.31-5.87-27.43-17.92a93,93,0,0,1-10.62-13.87,1.19,1.19,0,0,1,2-1.22c.16.26,15.52,25.66,36.56,30.7a1.19,1.19,0,0,1-.28,2.35Z"/><path class="cls-10" d="M675.68,683.88,662,703.35l-41.45,29.42-21.23-22,41.06-26.28a2,2,0,0,1,2.76,2.58L639.89,693a1.72,1.72,0,0,0,2.07,2.45Z"/><path class="cls-9" d="M608.74,736c4.63,8.91,15,24.57,33.08,31.25a10.89,10.89,0,0,0,12.86-4.29c10.46-16,36.75-56.76,44.42-73.47,0,0,5.67-9.25-9.32-13.86a8.55,8.55,0,0,0-7.36,1.16l-71.1,48.88A8,8,0,0,0,608.74,736Z"/><path class="cls-10" d="M626.83,740.93c6.36-6,25.29-22.47,34.63-30.56a1.08,1.08,0,0,1,1.63,1.39l-25.42,41.38a1.09,1.09,0,0,1-2-.64l.57-9.36A1.08,1.08,0,0,0,635,742l-7.33.81A1.09,1.09,0,0,1,626.83,740.93Z"/><path class="cls-10" d="M622.13,545.06,613.56,547c-50.63-19.9-89.93-10.77-89.93-10.77l-4.45-21.67c62.16.07,102.31,30.05,102.94,30.52Z"/><path class="cls-20" d="M939.24,772.1a.89.89,0,0,1-.49-1.64c4.45-2.91,2.36-10.26,1.87-11.76l-27.33-18a.89.89,0,0,1,1-1.49l27.58,18.19a.92.92,0,0,1,.35.43c.15.42,3.64,10.15-2.48,14.14A.88.88,0,0,1,939.24,772.1Z"/><path class="cls-20" d="M878.56,802.13c-9.92,0-16.06-10.47-16.13-10.59a.89.89,0,0,1,1.55-.89c.07.12,7.19,12.22,18.09,9.2,11.11-3.09,14.6-13.72,14.63-13.82l0-.07s1.2-3,.09-5a3.85,3.85,0,0,0-3-1.74c-5.88-.93-13.82,7.55-13.9,7.63a.89.89,0,0,1-1.31-1.21c.35-.38,8.67-9.26,15.49-8.19a5.54,5.54,0,0,1,4.26,2.64c1.47,2.6.18,6,0,6.46-.27.83-4,11.69-15.85,15A14.7,14.7,0,0,1,878.56,802.13Z"/><path class="cls-20" d="M900.06,805.8a.89.89,0,0,1-.44-1.67c.11-.06,11.81-6.83,10.21-16.32a4.43,4.43,0,0,0-3-3.53,3.84,3.84,0,0,0-2.25,0,.9.9,0,0,1-.53-1.71,5.62,5.62,0,0,1,3.3,0,6.23,6.23,0,0,1,4.21,4.95c.75,4.47-.94,9-4.91,13.22a30.16,30.16,0,0,1-6.18,5A.87.87,0,0,1,900.06,805.8Z"/><path class="cls-9" d="M1200.26,800.3l46.32,51.47-12.72,17.74-44.54-51.72S1189.67,801,1200.26,800.3Z"/><path class="cls-15" d="M1128.18,579.58c-.6,3.13-2.5,5.39-4.24,5.06s-2.68-3.14-2.08-6.26,2.49-5.39,4.24-5.06S1128.78,576.46,1128.18,579.58Z"/><path class="cls-15" d="M1115.52,622.68c-.59,3.12-2.49,5.39-4.23,5.05s-2.68-3.13-2.08-6.26,2.49-5.39,4.24-5.06S1116.12,619.55,1115.52,622.68Z"/><ellipse class="cls-15" cx="1108.87" cy="663.63" rx="5.76" ry="3.22" transform="translate(400.44 1744.44) rotate(-87.66)"/><path class="cls-20" d="M830.12,658.77a.92.92,0,0,1-.45-.12.9.9,0,0,1-.33-1.22l14.75-25.62L770.94,603l-18.45,29.19a.89.89,0,0,1-1.51-1l18.85-29.81a.89.89,0,0,1,1.08-.35l74.8,29.51a.89.89,0,0,1,.45,1.28l-15.27,26.51A.87.87,0,0,1,830.12,658.77Z"/><path class="cls-6" d="M577,392.69s-6.78,20.17-4.91,41.43A3.94,3.94,0,0,1,569.9,438h0a3.94,3.94,0,0,1-5.41-2l-10-24.08Z"/><path class="cls-9" d="M1297.28,724.73h0a.89.89,0,0,1-.85-.94c.91-16.92,7.27-28,12.45-34.39a40.61,40.61,0,0,1,11.22-9.88.9.9,0,1,1,.83,1.59c-.21.11-21,11.41-22.71,42.77A.9.9,0,0,1,1297.28,724.73Z"/><path class="cls-20" d="M891.57,744.83a8.32,8.32,0,0,1-8.33-8.33v-1a8.28,8.28,0,0,1,1.5-4.77l6.58-9.42a4.75,4.75,0,0,1,4.9-1.94l21.16,4.49a.88.88,0,0,1,.69,1.06.9.9,0,0,1-1.06.69l-21.16-4.49a3,3,0,0,0-3.07,1.21l-6.58,9.42a6.52,6.52,0,0,0-1.18,3.75v1a6.54,6.54,0,0,0,8.61,6.21c2.87-1,6.62-3.35,8.22-9.34a.9.9,0,0,1,1.73.47c-1.81,6.75-6.1,9.47-9.38,10.57A8.41,8.41,0,0,1,891.57,744.83Z"/><path class="cls-20" d="M871.2,786.13l-.21,0c-12.38-2.86-23.36-13.49-23.82-13.94a.89.89,0,0,1,0-1.26.9.9,0,0,1,1.26,0c.11.11,11.09,10.74,23,13.48a.89.89,0,0,1,.67,1.07A.9.9,0,0,1,871.2,786.13Z"/><path class="cls-9" d="M1210.68,760.44a.9.9,0,0,1-.47-.13l-30.11-18.24a.9.9,0,1,1,.93-1.53l30.11,18.24a.9.9,0,0,1,.3,1.23A.88.88,0,0,1,1210.68,760.44Z"/><path class="cls-11" d="M1108.87,945.28a1.2,1.2,0,0,1-1.2-1.19v-59a1.2,1.2,0,1,1,2.39,0v59A1.2,1.2,0,0,1,1108.87,945.28Z"/><path class="cls-10" d="M814.51,649.34a1.11,1.11,0,0,1-.44-.08c-15.81-6.31-39.84-15.8-41.63-16.27a1.19,1.19,0,0,1,.17-2.37c.29,0,1.15,0,42.34,16.43a1.19,1.19,0,0,1-.44,2.29ZM772.61,633Zm0,0Z"/><path class="cls-10" d="M802.05,654.86a1.17,1.17,0,0,1-.45-.09c-9.91-4-26.07-10.58-27.57-10.95a1.19,1.19,0,0,1,.14-2.37c.29,0,1.16,0,28.33,11.12a1.19,1.19,0,0,1-.45,2.29Zm-27.88-11Z"/><path class="cls-21" d="M827.2,640.79l2.35-5.76c.19-.46.09-.68-.36-.87l-1.35-.54-.26.64.08,0c.31.13.34.22.19.59l-2.15,5.3Zm.67.27,1.49.61,1.83-4.49c.18-.45.08-.68-.36-.86l-.89-.36ZM825,639.91l2.07-5.1-.88-.36c-.44-.18-.68-.09-.86.36l-1.83,4.49Zm6.93-.6a4.67,4.67,0,1,1-2.54-6.14A4.55,4.55,0,0,1,832,639.31Zm-24-9.06-.4,1a1.46,1.46,0,0,1-1,.09c-.28-.12-.33-.3-.17-.68s.3-.52.63-.52A5.45,5.45,0,0,1,807.94,630.25Zm12.85,2.14-.43,1.05L817,635.56l2.22.9-.43,1.07-4-1.62.42-1,3.37-2.14-1.15-.47c-.25-.1-.42,0-.51.2l0,.09-.59-.24.38-.93a.52.52,0,0,1,.77-.33Zm-5.86-2.45a1.34,1.34,0,0,1,.82.75c.14.37.09.65-.23,1.46l-1.41,3.47-1.59-.65,1.31-3.23c.21-.51.19-.68-.15-.82a1.23,1.23,0,0,0-1,.09l-1.4,3.44-1.59-.64,1.68-4.13a.35.35,0,0,0-.22-.54l-.09,0,.23-.58,1.51.61a.46.46,0,0,1,.3.68l-.09.2A2.39,2.39,0,0,1,814.93,629.94Zm14.84,2.39a5.64,5.64,0,1,1-7.34,3.11A5.5,5.5,0,0,1,829.77,632.33ZM805.37,624c.58.23.8.64.62,1.1s-.64.6-1.22.36-.8-.64-.61-1.11S804.8,623.77,805.37,624Zm3.47,3.44c1.3.52,1.56,1.16,1,2.45l-1,2.43c-.14.33-.08.49.19.6l.07,0-.22.55-1.46-.59a.46.46,0,0,1-.28-.67l0-.07a3.24,3.24,0,0,1-.86.16,2.57,2.57,0,0,1-.92-.19c-.87-.35-1.1-1-.7-2a1.57,1.57,0,0,1,1.56-1.13,3.12,3.12,0,0,1,.68.05c.4.07.62.11,1.32.27l0-.11c.18-.45.09-.67-.34-.84a4,4,0,0,0-1.73-.24l.05-1.12a4.15,4.15,0,0,1,1.24,0A5.64,5.64,0,0,1,808.84,627.45Zm-14-5.77-.35,2.77-1.43-.59ZM805,626a.52.52,0,0,1,.3.73l-1.87,4.58-1.58-.64,1.68-4.14a.36.36,0,0,0-.22-.54l-.09,0,.23-.58ZM803,623.15a.51.51,0,0,1,.29.73l-2.55,6.28-1.6-.65,2.37-5.83a.36.36,0,0,0-.22-.54l-.1,0,.24-.59ZM800.23,622a.52.52,0,0,1,.3.73L798,629.06l-1.6-.65,2.38-5.84a.35.35,0,0,0-.23-.53l-.1,0,.24-.59Zm-9,4.28,1.16-1.45,1.94.79-.21,1.83,1.79.73.76-7a.71.71,0,0,0-.49-.83l-2.53-1-.24.59.21.09c.26.1.36.27.28.47a1.7,1.7,0,0,1-.36.49l-4,4.64Z"/><g class="cls-22"><rect class="cls-23" x="804.38" y="606.61" width="14.93" height="49.04" transform="translate(-78.6 1145.45) rotate(-67.87)"/></g><g id="Plant"><path class="cls-11" d="M1441.76,839.75c72.61-4.81,56.46-55.83,64-97.94C1439.54,759.36,1422.11,798.8,1441.76,839.75Z"/><path class="cls-11" d="M1565.5,525.94c-28.06,75.48,6.79,154.87-119.91,154.58C1408.31,633.61,1440.07,534,1565.5,525.94Z"/><path class="cls-3" d="M1325.72,795.26h0c-38.09,0-62.47-37.09-66.88-73.71a1.64,1.64,0,0,1,.38-1.24,1.6,1.6,0,0,1,1.16-.58c4.3-.21,9.16-.68,14.31-1.18,8.33-.81,17.77-1.74,27.12-1.74,21.24,0,35.91,4.79,46.17,15.08,10.76,10.76,16.19,27.83,16.16,50.73a1.62,1.62,0,0,1-.81,1.4C1350.39,791.48,1337.74,795.26,1325.72,795.26Zm-63.43-72.39c4.7,33.84,28.21,69.14,63.43,69.14,11.19,0,23-3.48,35.17-10.34-.11-21.52-5.22-37.5-15.2-47.49-9.62-9.64-23.56-14.12-43.88-14.12-9.19,0-18.55.91-26.81,1.72C1270.5,722.21,1266.21,722.63,1262.29,722.87Z"/><path class="cls-24" d="M1401.5,948.68a1.63,1.63,0,0,1-1.63-1.59c0-2.51,0-8.94,0-12.64.25-47.75.89-174.59-120.53-195.31a1.62,1.62,0,1,1,.54-3.2c53.05,9,89.49,39.41,108.32,90.24,15.26,41.18,15,84.83,14.92,108.28,0,3.69,0,10.09,0,12.56a1.62,1.62,0,0,1-1.59,1.66Z"/><path class="cls-3" d="M1360.58,624.06h-.17c-29-3.08-54-19.07-68.4-43.87-19.67-33.75-18.66-79.62,2.84-129.17a1.67,1.67,0,0,1,.92-.87,1.58,1.58,0,0,1,1.26.05c52.7,24.54,86.67,59.82,93.19,96.79,4.73,26.75-5.13,53.24-28.49,76.61A1.65,1.65,0,0,1,1360.58,624.06Zm-63.41-170.22c-20.44,48-21.29,92.22-2.36,124.71,13.8,23.67,37.52,39,65.17,42.19,22.19-22.44,31.54-47.74,27-73.2C1380.75,512,1348,477.89,1297.17,453.84Z"/><path class="cls-3" d="M1295,810.17c10.76,0,98.65,0,78.25,87.06C1287.73,887,1313.84,843.55,1295,810.17Z"/><path class="cls-3" d="M1468.06,720.81c28-22.31,89.25-33.51,115.33-22.35,39.5,16.92,33.45,67,33.45,67-62.62,27.85-90.64-53-159.13-33.65Z"/><path class="cls-3" d="M1458.84,888.77c-22.86,8.52-34.57,34.9-33.51,57.36a233.44,233.44,0,0,0,32.92-3.24C1466.68,927.49,1470.63,905.35,1458.84,888.77Z"/><path class="cls-25" d="M1380.26,948.84h-.19a1.62,1.62,0,0,1-1.42-1.81c5.59-47.09-38.27-96.47-57.64-114.06l-1.4-1.29a1.63,1.63,0,0,1,2.3-2.3c.2.2.64.6,1.28,1.18,19.74,17.93,64.45,68.27,58.68,116.86A1.63,1.63,0,0,1,1380.26,948.84Z"/><path class="cls-26" d="M1425.76,949.71a1.62,1.62,0,0,1-1.61-1.5c-1.12-15.29,5.79-139.31,64.94-189.25a1.62,1.62,0,0,1,2.09,2.48c-58.14,49.09-64.9,171.45-63.8,186.53a1.61,1.61,0,0,1-1.5,1.73Z"/><path class="cls-27" d="M1393.25,948.68h0a1.62,1.62,0,0,1-1.57-1.68c1.35-40.84-6.84-341.08-81.51-456.09a1.63,1.63,0,0,1,2.73-1.77c75.12,115.71,83.37,417,82,458A1.62,1.62,0,0,1,1393.25,948.68Z"/><path class="cls-28" d="M1414.4,948.68a1.62,1.62,0,0,1-1.62-1.58c-.11-3.91-.29-11.67-.49-16.76-3-76.77-11-280.7,129.91-381.22a1.62,1.62,0,0,1,1.88,2.64c-139.49,99.51-131.54,302.16-128.55,378.45.2,5.1.38,12.88.49,16.8a1.62,1.62,0,0,1-1.57,1.67Z"/><path class="cls-11" d="M1419.14,947.87h-.24a1.62,1.62,0,0,1-1.37-1.84c4.26-29.08,4.47-57.72,4.68-83.08.61-74.69,1.09-133.68,112.43-188.26a1.61,1.61,0,0,1,2.17.74,1.63,1.63,0,0,1-.74,2.17c-109.54,53.7-110,111.81-110.61,185.38-.21,25.47-.43,54.22-4.72,83.52A1.62,1.62,0,0,1,1419.14,947.87Z"/><path class="cls-3" d="M1191.91,683.31c62.25.49,129,10.23,193.07-15.79C1331.33,613.87,1256.15,605.62,1191.91,683.31Z"/><path class="cls-11" d="M1191.91,683.31c77.13,63.82,209.59-52.62,228.17,91.92,0,0,21-67.67-35.1-107.71C1311.54,615.13,1191.91,683.31,1191.91,683.31Z"/><path class="cls-11" d="M1521.78,683.1c64,4.2,121.24-7,90.82-132.66C1603.72,640.34,1538.31,654.6,1521.78,683.1Z"/><path class="cls-11" d="M1616.84,765.43c-60.38,1.45-95.06-93.76-159.13-33.65C1526.2,712.47,1554.22,793.28,1616.84,765.43Z"/></g></svg>